<?xml version="1.0" encoding="UTF-8" standalone="no"?>
<!-- Created with Inkscape (http://www.inkscape.org/) -->

<svg
   version="1.1"
   id="svg2"
   width="666.66669"
   height="666.66669"
   viewBox="0 0 666.66669 666.66669"
   sodipodi:docname="Logo.ai"
   xmlns:inkscape="http://www.inkscape.org/namespaces/inkscape"
   xmlns:sodipodi="http://sodipodi.sourceforge.net/DTD/sodipodi-0.dtd"
   xmlns="http://www.w3.org/2000/svg"
   xmlns:svg="http://www.w3.org/2000/svg">
  <defs
     id="defs6">
    <clipPath
       clipPathUnits="userSpaceOnUse"
       id="clipPath16">
      <path
         d="M 0,500 H 500 V 0 H 0 Z"
         id="path14" />
    </clipPath>
  </defs>
  <sodipodi:namedview
     id="namedview4"
     pagecolor="#ffffff"
     bordercolor="#000000"
     borderopacity="0.25"
     inkscape:showpageshadow="2"
     inkscape:pageopacity="0.0"
     inkscape:pagecheckerboard="0"
     inkscape:deskcolor="#d1d1d1" />
  <g
     id="g8"
     inkscape:groupmode="layer"
     inkscape:label="Logo"
     transform="matrix(1.3333333,0,0,-1.3333333,0,666.66667)">
    <g
       id="g10">
      <g
         id="g12"
         clip-path="url(#clipPath16)">
        <g
           id="g18"
           transform="translate(384.2394,264.5154)">
          <path
             d="M 0,0 H -18.184 V 116.688 H -250.552 V 0 h -18.232 V 129.987 H 0 Z m -134.391,-144.762 v 0 c -11.598,3.274 -22.974,7.281 -34.061,11.998 -10.521,4.389 -20.728,9.499 -30.547,15.291 -10.427,6.067 -20.082,13.372 -28.752,21.759 -8.054,8.138 -14.974,17.324 -20.575,27.311 l -0.071,0.117 v 0.071 h 17.575 c 4.384,-7.713 9.657,-14.886 15.713,-21.372 14.998,-15.771 36.158,-27.125 51.249,-33.862 9.566,-4.307 19.411,-7.967 29.469,-10.955 10.048,2.988 19.886,6.648 29.443,10.955 15.093,6.737 36.241,18.091 51.25,33.862 6.075,6.484 11.367,13.655 15.771,21.372 h 17.575 v -0.071 l -0.059,-0.106 c -5.609,-9.987 -12.533,-19.177 -20.587,-27.322 -8.677,-8.385 -18.335,-15.691 -28.765,-21.759 -9.81,-5.792 -20.009,-10.9 -30.521,-15.291 -11.091,-4.718 -22.47,-8.722 -34.074,-11.987 z"
             style="fill:#29a3dc;fill-opacity:1;fill-rule:nonzero;stroke:none"
             id="path20" />
        </g>
        <g
           id="g22"
           transform="translate(148.04,279.4192)">
          <path
             d="m 0,0 4.395,5.32 c 1.873,-2.508 3.936,-3.797 6.396,-3.797 3.199,0 4.874,1.922 4.874,5.717 V 23.644 H 3.598 v 6.385 H 23.622 V 7.687 C 23.622,-0.832 19.344,-5.015 11.225,-5.015 6.907,-5.184 2.756,-3.33 0,0"
             style="fill:#29a3dc;fill-opacity:1;fill-rule:nonzero;stroke:none"
             id="path24" />
        </g>
        <g
           id="g26"
           transform="translate(179.781,290.1518)">
          <path
             d="M 0,0 V 19.298 H 7.968 V 0.292 c 0,-6.538 2.859,-9.255 7.685,-9.255 4.827,0 7.674,2.717 7.674,9.255 v 19.006 h 7.911 V 0 c 0,-10.136 -5.858,-15.747 -15.596,-15.747 C 5.905,-15.747 0,-10.136 0,0"
             style="fill:#29a3dc;fill-opacity:1;fill-rule:nonzero;stroke:none"
             id="path28" />
        </g>
        <g
           id="g30"
           transform="translate(250.9957,309.4496)">
          <path
             d="m 0,0 v -34.46 h -6.549 l -17.177,20.928 V -34.46 h -7.875 V 0 h 6.598 l 17.13,-20.927 0,20.927 z"
             style="fill:#29a3dc;fill-opacity:1;fill-rule:nonzero;stroke:none"
             id="path32" />
        </g>
        <path
           d="m 259.701,309.449 h 7.968 v -34.46 h -7.968 z"
           style="fill:#29a3dc;fill-opacity:1;fill-rule:nonzero;stroke:none"
           id="path34" />
        <g
           id="g36"
           transform="translate(303.8386,292.214)">
          <path
             d="m 0,0 c 0,6.549 -4.616,11.026 -10.78,11.026 -6.162,0 -10.767,-4.477 -10.767,-11.026 0,-6.549 4.616,-11.026 10.767,-11.026 C -4.628,-11.026 0,-6.538 0,0 m -29.62,0 c 0,10.24 7.967,17.821 18.84,17.821 10.873,0 18.852,-7.534 18.852,-17.821 0,-10.287 -8.014,-17.81 -18.852,-17.81 -10.838,0 -18.84,7.616 -18.84,17.81"
             style="fill:#29a3dc;fill-opacity:1;fill-rule:nonzero;stroke:none"
             id="path38" />
        </g>
        <g
           id="g40"
           transform="translate(332.8729,302.9466)">
          <path
             d="M 0,0 H -6.445 V -12.009 H 0 c 4.873,0 7.335,2.26 7.335,6.009 0,3.75 -2.413,6 -7.335,6 m 7.534,-27.957 -6.644,9.596 h -7.335 v -9.596 h -7.978 V 6.503 H 0.492 c 9.21,0 14.962,-4.78 14.962,-12.501 0.198,-4.769 -2.648,-9.138 -7.089,-10.886 l 7.733,-11.073 z"
             style="fill:#29a3dc;fill-opacity:1;fill-rule:nonzero;stroke:none"
             id="path42" />
        </g>
        <g
           id="g44"
           transform="translate(95.7243,229.529)">
          <path
             d="m 0,0 c 0,12.853 9.842,22.028 23.152,22.028 7.371,0 13.522,-2.684 17.576,-7.557 L 34.4,8.613 c -2.644,3.193 -6.587,5.026 -10.732,4.99 -7.979,0 -13.65,-5.601 -13.65,-13.65 0,-8.05 5.682,-13.603 13.615,-13.603 4.164,-0.041 8.115,1.823 10.732,5.062 l 6.327,-5.859 C 36.674,-19.38 30.523,-22.063 23.117,-22.063 9.842,-22.052 0,-12.853 0,0"
             style="fill:#29a3dc;fill-opacity:1;fill-rule:nonzero;stroke:none"
             id="path46" />
        </g>
        <g
           id="g48"
           transform="translate(184.6785,229.529)">
          <path
             d="m 0,0 c 0,8.108 -5.73,13.65 -13.346,13.65 -7.615,0 -13.345,-5.542 -13.345,-13.65 0,-8.108 5.73,-13.65 13.345,-13.65 C -5.73,-13.65 0,-8.097 0,0 m -36.685,0 c 0,12.653 9.877,22.028 23.339,22.028 13.463,0 23.283,-9.293 23.283,-22.028 0,-12.735 -9.926,-22.052 -23.33,-22.052 -13.404,0 -23.292,9.385 -23.292,22.052"
             style="fill:#29a3dc;fill-opacity:1;fill-rule:nonzero;stroke:none"
             id="path50" />
        </g>
        <g
           id="g52"
           transform="translate(229.5189,216.3123)">
          <path
             d="M 0,0 C 8.471,0 14.059,5.05 14.059,13.216 14.059,21.383 8.518,26.445 0,26.445 H -9.022 V 0 Z M -18.888,34.541 H 0.48 c 13.956,0 23.527,-8.402 23.527,-21.325 0,-12.924 -9.571,-21.324 -23.527,-21.324 h -19.368 z"
             style="fill:#29a3dc;fill-opacity:1;fill-rule:nonzero;stroke:none"
             id="path54" />
        </g>
        <g
           id="g56"
           transform="translate(302.5029,216.125)">
          <path
             d="M 0,0 V -7.92 H -33.018 V 34.729 H -0.786 V 26.808 H -23.21 v -9.257 h 19.8 V 9.877 h -19.8 V 0 Z"
             style="fill:#29a3dc;fill-opacity:1;fill-rule:nonzero;stroke:none"
             id="path58" />
        </g>
        <g
           id="g60"
           transform="translate(336.8097,242.8157)">
          <path
             d="M 0,0 H -8.037 V -14.87 H 0 c 6.033,0 9.08,2.801 9.08,7.442 C 9.08,-2.788 6.033,0 0,0 M 9.257,-34.612 1.054,-22.73 h -9.091 v -11.882 h -9.877 V 8.037 H 0.551 c 11.389,0 18.523,-5.858 18.523,-15.465 0.242,-5.901 -3.279,-11.309 -8.774,-13.475 l 9.56,-13.709 z"
             style="fill:#29a3dc;fill-opacity:1;fill-rule:nonzero;stroke:none"
             id="path62" />
        </g>
        <g
           id="g64"
           transform="translate(368.8553,212.4107)">
          <path
             d="M 0,0 3.352,7.428 C 7.488,4.575 12.385,3.03 17.411,2.987 c 5.859,0 8.201,1.946 8.201,4.57 0,7.979 -24.793,2.497 -24.793,18.336 0,7.254 5.859,13.287 17.974,13.287 5.186,0.108 10.302,-1.199 14.799,-3.784 L 30.545,27.91 c -3.581,2.118 -7.65,3.27 -11.81,3.35 -5.858,0 -8.108,-2.203 -8.108,-4.873 0,-7.862 24.793,-2.438 24.793,-18.104 C 35.42,1.16 29.562,-4.933 17.329,-4.933 10.603,-4.933 3.773,-2.929 0,0"
             style="fill:#29a3dc;fill-opacity:1;fill-rule:nonzero;stroke:none"
             id="path66" />
        </g>
        <g
           id="g68"
           transform="translate(296.2813,315.2258)">
          <path
             d="m 0,0 c -1.43,-0.445 -2.963,-0.445 -4.395,0 l -9.713,3.035 -0.948,-7.709 c 0,-2.345 5.753,-4.348 12.888,-4.348 7.136,0 12.889,1.946 12.889,4.348 L 9.773,3.035 Z M 18.056,11.002 -0.691,16.86 c -1.019,0.317 -2.11,0.317 -3.128,0 l -18.689,-5.858 c -0.86,-0.211 -1.389,-1.079 -1.179,-1.941 0.002,-0.009 0.006,-0.018 0.008,-0.028 0.137,-0.579 0.59,-1.033 1.171,-1.171 l 3.257,-1.019 c -0.725,-0.908 -1.136,-2.026 -1.171,-3.188 -1.021,-0.549 -1.403,-1.819 -0.853,-2.839 0.002,-0.008 0.005,-0.013 0.009,-0.019 0.158,-0.298 0.387,-0.551 0.668,-0.739 l -0.925,-4.123 c -0.153,-0.669 0.246,-2.075 0.925,-2.075 h 2.436 c 0.68,0 1.078,1.406 0.926,2.075 l -0.926,4.123 c 0.965,0.653 1.216,1.966 0.563,2.929 -0.175,0.261 -0.408,0.477 -0.68,0.633 0.045,1.004 0.557,1.927 1.383,2.495 L -3.797,2.039 c 1.019,-0.317 2.11,-0.317 3.128,0 L 18.08,7.897 c 0.86,0.211 1.389,1.079 1.179,1.941 -0.004,0.009 -0.006,0.018 -0.008,0.028 -0.154,0.573 -0.616,1.011 -1.195,1.136"
             style="fill:#29a3dc;fill-opacity:1;fill-rule:nonzero;stroke:none"
             id="path70" />
        </g>
      </g>
    </g>
  </g>
</svg>
