<?xml version="1.0" encoding="UTF-8" standalone="no"?>
<!-- Created with Inkscape (http://www.inkscape.org/) -->

<svg
   version="1.1"
   id="svg2"
   width="400"
   height="400"
   viewBox="0 0 400 400"
   sodipodi:docname="logo2.ai"
   xmlns:inkscape="http://www.inkscape.org/namespaces/inkscape"
   xmlns:sodipodi="http://sodipodi.sourceforge.net/DTD/sodipodi-0.dtd"
   xmlns="http://www.w3.org/2000/svg"
   xmlns:svg="http://www.w3.org/2000/svg">
  <defs
     id="defs6">
    <clipPath
       clipPathUnits="userSpaceOnUse"
       id="clipPath16">
      <path
         d="M 0,300 H 300 V 0 H 0 Z"
         id="path14" />
    </clipPath>
  </defs>
  <sodipodi:namedview
     id="namedview4"
     pagecolor="#ffffff"
     bordercolor="#000000"
     borderopacity="0.25"
     inkscape:showpageshadow="2"
     inkscape:pageopacity="0.0"
     inkscape:pagecheckerboard="0"
     inkscape:deskcolor="#d1d1d1" />
  <g
     id="g8"
     inkscape:groupmode="layer"
     inkscape:label="logo2"
     transform="matrix(1.3333333,0,0,-1.3333333,0,400)">
    <g
       id="g10">
      <g
         id="g12"
         clip-path="url(#clipPath16)">
        <g
           id="g18"
           transform="translate(275.0209,156.857)">
          <path
             d="M 0,0 H -16.8 V 107.805 H -231.479 V 0 h -16.845 V 120.092 H 0 Z m -124.161,-133.742 v 0 c -10.715,3.024 -21.225,6.727 -31.468,11.084 -9.721,4.056 -19.15,8.776 -28.222,14.127 -9.633,5.605 -18.553,12.354 -26.563,20.103 -7.441,7.518 -13.834,16.005 -19.009,25.232 l -0.066,0.108 v 0.065 h 16.238 c 4.05,-7.126 8.922,-13.753 14.517,-19.745 13.856,-14.57 33.405,-25.059 47.347,-31.284 8.838,-3.979 17.934,-7.36 27.226,-10.121 9.283,2.761 18.372,6.142 27.201,10.121 13.944,6.225 33.483,16.714 47.35,31.284 5.612,5.991 10.501,12.616 14.57,19.745 h 16.238 v -0.065 l -0.056,-0.098 c -5.181,-9.227 -11.578,-17.717 -19.019,-25.242 -8.017,-7.747 -16.939,-14.496 -26.575,-20.103 -9.063,-5.351 -18.486,-10.07 -28.198,-14.127 -10.247,-4.359 -20.76,-8.058 -31.48,-11.074 z"
             style="fill:#29a3dc;fill-opacity:1;fill-rule:nonzero;stroke:none"
             id="path20" />
        </g>
        <g
           id="g22"
           transform="translate(56.8014,170.6262)">
          <path
             d="M 0,0 4.06,4.915 C 5.791,2.598 7.697,1.407 9.97,1.407 c 2.956,0 4.502,1.776 4.502,5.282 V 21.844 H 3.324 v 5.899 h 18.5 V 7.102 C 21.824,-0.769 17.872,-4.633 10.371,-4.633 6.381,-4.79 2.546,-3.076 0,0"
             style="fill:#29a3dc;fill-opacity:1;fill-rule:nonzero;stroke:none"
             id="path24" />
        </g>
        <g
           id="g26"
           transform="translate(86.1262,180.5419)">
          <path
             d="M 0,0 V 17.829 H 7.362 V 0.27 c 0,-6.04 2.641,-8.55 7.1,-8.55 4.459,0 7.09,2.51 7.09,8.55 V 17.829 H 28.86 V 0 c 0,-9.364 -5.412,-14.548 -14.408,-14.548 C 5.455,-14.548 0,-9.364 0,0"
             style="fill:#29a3dc;fill-opacity:1;fill-rule:nonzero;stroke:none"
             id="path28" />
        </g>
        <g
           id="g30"
           transform="translate(151.9199,198.3707)">
          <path
             d="m 0,0 v -31.836 h -6.051 l -15.869,19.334 v -19.334 h -7.276 V 0 H -23.1 L -7.274,-19.334 V 0 Z"
             style="fill:#29a3dc;fill-opacity:1;fill-rule:nonzero;stroke:none"
             id="path32" />
        </g>
        <path
           d="m 159.962,198.37 h 7.362 v -31.836 h -7.362 z"
           style="fill:#29a3dc;fill-opacity:1;fill-rule:nonzero;stroke:none"
           id="path34" />
        <g
           id="g36"
           transform="translate(200.7403,182.4471)">
          <path
             d="m 0,0 c 0,6.051 -4.265,10.187 -9.96,10.187 -5.692,0 -9.947,-4.136 -9.947,-10.187 0,-6.051 4.265,-10.187 9.947,-10.187 C -4.275,-10.187 0,-6.04 0,0 m -27.365,0 c 0,9.461 7.36,16.464 17.405,16.464 10.046,0 17.418,-6.96 17.418,-16.464 0,-9.504 -7.405,-16.454 -17.418,-16.454 -10.012,0 -17.405,7.036 -17.405,16.454"
             style="fill:#29a3dc;fill-opacity:1;fill-rule:nonzero;stroke:none"
             id="path38" />
        </g>
        <g
           id="g40"
           transform="translate(227.5644,192.3627)">
          <path
             d="M 0,0 H -5.954 V -11.095 H 0 c 4.502,0 6.777,2.089 6.777,5.552 C 6.777,-2.078 4.547,0 0,0 m 6.961,-25.829 -6.139,8.866 h -6.776 v -8.866 h -7.371 V 6.008 H 0.454 c 8.509,0 13.824,-4.417 13.824,-11.55 0.182,-4.406 -2.447,-8.442 -6.55,-10.057 l 7.145,-10.23 z"
             style="fill:#29a3dc;fill-opacity:1;fill-rule:nonzero;stroke:none"
             id="path42" />
        </g>
        <g
           id="g44"
           transform="translate(8.4681,124.5338)">
          <path
             d="m 0,0 c 0,11.874 9.092,20.351 21.39,20.351 6.809,0 12.492,-2.479 16.237,-6.982 L 31.781,7.957 c -2.443,2.95 -6.085,4.643 -9.914,4.611 -7.372,0 -12.611,-5.175 -12.611,-12.611 0,-7.437 5.249,-12.568 12.578,-12.568 3.847,-0.038 7.497,1.685 9.915,4.676 l 5.846,-5.412 C 33.882,-17.904 28.199,-20.384 21.357,-20.384 9.092,-20.373 0,-11.874 0,0"
             style="fill:#29a3dc;fill-opacity:1;fill-rule:nonzero;stroke:none"
             id="path46" />
        </g>
        <g
           id="g48"
           transform="translate(90.6509,124.5338)">
          <path
             d="m 0,0 c 0,7.491 -5.294,12.611 -12.33,12.611 -7.035,0 -12.329,-5.12 -12.329,-12.611 0,-7.491 5.294,-12.611 12.329,-12.611 C -5.294,-12.611 0,-7.48 0,0 m -33.892,0 c 0,11.69 9.125,20.351 21.562,20.351 12.438,0 21.51,-8.585 21.51,-20.351 0,-11.766 -9.17,-20.373 -21.553,-20.373 -12.384,0 -21.519,8.671 -21.519,20.373"
             style="fill:#29a3dc;fill-opacity:1;fill-rule:nonzero;stroke:none"
             id="path50" />
        </g>
        <g
           id="g52"
           transform="translate(132.0779,112.3232)">
          <path
             d="M 0,0 C 7.826,0 12.989,4.666 12.989,12.21 12.989,19.756 7.869,24.432 0,24.432 H -8.335 V 0 Z M -17.45,31.912 H 0.444 C 13.337,31.912 22.18,24.15 22.18,12.21 22.18,0.27 13.337,-7.491 0.444,-7.491 H -17.45 Z"
             style="fill:#29a3dc;fill-opacity:1;fill-rule:nonzero;stroke:none"
             id="path54" />
        </g>
        <g
           id="g56"
           transform="translate(199.5063,112.1502)">
          <path
             d="M 0,0 V -7.317 H -30.505 V 32.086 H -0.726 V 24.767 H -21.443 V 16.215 H -3.15 V 9.125 H -21.443 V 0 Z"
             style="fill:#29a3dc;fill-opacity:1;fill-rule:nonzero;stroke:none"
             id="path58" />
        </g>
        <g
           id="g60"
           transform="translate(231.2016,136.8091)">
          <path
             d="M 0,0 H -7.425 V -13.738 H 0 c 5.574,0 8.389,2.588 8.389,6.875 C 8.389,-2.575 5.574,0 0,0 M 8.552,-31.978 0.974,-21 H -7.425 V -31.978 H -16.55 V 7.425 H 0.509 c 10.522,0 17.113,-5.412 17.113,-14.288 0.224,-5.452 -3.029,-10.448 -8.106,-12.449 l 8.832,-12.666 z"
             style="fill:#29a3dc;fill-opacity:1;fill-rule:nonzero;stroke:none"
             id="path62" />
        </g>
        <g
           id="g64"
           transform="translate(260.8078,108.7186)">
          <path
             d="m 0,0 3.097,6.863 c 3.821,-2.636 8.346,-4.064 12.989,-4.104 5.412,0 7.577,1.798 7.577,4.222 0,7.372 -22.906,2.308 -22.906,16.941 0,6.701 5.412,12.276 16.605,12.276 4.792,0.099 9.518,-1.108 13.673,-3.496 L 28.22,25.786 c -3.308,1.956 -7.067,3.021 -10.911,3.095 -5.412,0 -7.491,-2.036 -7.491,-4.503 0,-7.263 22.906,-2.252 22.906,-16.726 0,-6.58 -5.412,-12.209 -16.714,-12.209 C 9.796,-4.557 3.486,-2.706 0,0"
             style="fill:#29a3dc;fill-opacity:1;fill-rule:nonzero;stroke:none"
             id="path66" />
        </g>
        <g
           id="g68"
           transform="translate(193.7583,203.7072)">
          <path
             d="m 0,0 c -1.321,-0.411 -2.737,-0.411 -4.06,0 l -8.974,2.804 -0.876,-7.122 c 0,-2.166 5.315,-4.017 11.907,-4.017 6.593,0 11.907,1.797 11.907,4.017 L 9.029,2.804 Z m 16.681,10.164 -17.319,5.413 c -0.941,0.292 -1.95,0.292 -2.891,0 l -17.266,-5.413 c -0.795,-0.194 -1.283,-0.996 -1.089,-1.792 0.002,-0.009 0.005,-0.018 0.007,-0.026 0.127,-0.535 0.546,-0.955 1.082,-1.082 l 3.009,-0.941 c -0.669,-0.84 -1.049,-1.872 -1.082,-2.946 -0.943,-0.507 -1.295,-1.681 -0.788,-2.623 0.002,-0.007 0.005,-0.013 0.009,-0.018 0.146,-0.275 0.358,-0.509 0.617,-0.683 l -0.855,-3.809 c -0.141,-0.617 0.227,-1.916 0.855,-1.916 h 2.251 c 0.628,0 0.996,1.299 0.855,1.916 l -0.855,3.809 c 0.891,0.604 1.123,1.817 0.519,2.706 -0.161,0.241 -0.376,0.441 -0.628,0.585 0.042,0.928 0.515,1.781 1.279,2.306 L -3.508,1.884 c 0.941,-0.293 1.949,-0.293 2.89,0 l 17.322,5.412 c 0.794,0.195 1.283,0.996 1.089,1.793 -0.004,0.009 -0.006,0.017 -0.007,0.026 -0.143,0.53 -0.57,0.934 -1.105,1.049"
             style="fill:#29a3dc;fill-opacity:1;fill-rule:nonzero;stroke:none"
             id="path70" />
        </g>
      </g>
    </g>
  </g>
</svg>
